<?xml version="1.0" standalone="no"?>
<!DOCTYPE svg PUBLIC "-//W3C//DTD SVG 20010904//EN"
 "http://www.w3.org/TR/2001/REC-SVG-20010904/DTD/svg10.dtd">
<svg version="1.0" xmlns="http://www.w3.org/2000/svg"
 width="240.000000pt" height="240.000000pt" viewBox="0 0 240.000000 240.000000"
 preserveAspectRatio="xMidYMid meet">

<g transform="translate(0.000000,240.000000) scale(0.100000,-0.100000)"
fill="#000000" stroke="none">
<path d="M1753 2328 l-71 -73 64 -69 c300 -321 338 -804 91 -1171 -141 -210
-369 -357 -624 -406 -84 -16 -329 -6 -408 16 -137 38 -294 127 -401 227 l-60
57 -73 -73 -73 -73 87 -76 c157 -135 322 -218 519 -261 l98 -21 -5 -47 c-8
-62 -47 -137 -93 -178 -60 -52 -118 -73 -217 -78 l-87 -4 0 -49 0 -49 550 0
550 0 0 49 0 49 -87 4 c-99 5 -157 26 -217 78 -47 41 -85 116 -93 181 -5 44
-4 49 15 49 53 0 227 56 328 105 702 342 872 1247 342 1818 l-63 68 -72 -73z"/>
<path d="M895 2375 c-503 -95 -809 -608 -654 -1095 126 -394 531 -644 939
-580 515 82 837 604 679 1100 -129 404 -548 654 -964 575z m340 -152 c86 -21
91 -28 51 -69 -38 -39 -46 -42 -46 -14 0 12 -7 20 -17 20 -10 0 -27 3 -39 6
-15 4 -33 -7 -71 -43 -48 -46 -58 -73 -27 -73 20 0 17 -39 -3 -47 -10 -4 -36
-18 -58 -32 -33 -22 -39 -31 -37 -53 3 -26 1 -28 -36 -28 -37 0 -40 -2 -45
-32 -3 -18 -1 -37 3 -42 13 -13 80 3 80 19 0 8 4 15 10 15 5 0 17 8 27 19 30
31 69 32 103 1 30 -27 39 -50 20 -50 -5 0 -10 -5 -10 -11 0 -8 5 -8 15 1 21
17 19 40 -7 67 -13 14 -17 23 -8 23 7 0 28 -16 47 -36 33 -35 34 -36 53 -19
11 10 21 16 23 14 1 -2 7 -13 13 -24 9 -15 22 -20 55 -21 48 -1 59 -16 39 -53
-8 -16 -21 -21 -51 -21 -22 0 -50 5 -61 11 -18 10 -24 8 -39 -12 l-18 -24 -45
25 c-28 15 -46 32 -46 43 0 27 -24 31 -113 19 -76 -11 -84 -14 -117 -50 -19
-22 -42 -42 -51 -45 -9 -3 -29 -21 -43 -40 -24 -31 -26 -40 -23 -123 3 -115
22 -146 105 -170 44 -13 62 -14 87 -5 42 15 60 14 75 -4 7 -9 19 -14 25 -11
21 8 34 -15 28 -46 -4 -21 0 -35 15 -51 35 -38 45 -79 27 -113 -19 -37 -19
-43 3 -68 10 -12 24 -39 30 -61 19 -68 30 -76 87 -69 44 6 56 14 108 67 31 33
57 65 57 72 0 6 16 25 35 42 34 31 35 32 29 90 -6 57 -5 59 49 146 54 85 84
153 74 163 -3 3 -19 -2 -36 -11 -22 -11 -37 -13 -49 -6 -27 14 -68 62 -87 101
-10 19 -28 50 -42 68 -13 17 -19 32 -14 32 14 0 80 -71 81 -86 0 -6 9 -19 19
-28 11 -10 22 -28 25 -42 4 -14 14 -24 24 -24 19 0 92 71 111 107 26 52 3 86
-44 65 -21 -10 -27 -7 -50 19 -30 36 -23 60 9 31 22 -20 62 -22 138 -7 47 9
53 -3 69 -123 37 -292 -120 -582 -386 -713 -94 -46 -170 -67 -274 -75 -180
-13 -389 62 -521 188 -56 53 -63 82 -25 100 23 10 25 15 19 54 -4 30 -1 49 10
67 23 34 9 66 -53 125 -27 26 -53 60 -56 74 -4 15 -22 49 -41 75 -19 27 -34
60 -34 75 0 16 -9 37 -20 48 -18 18 -18 22 -4 77 32 127 140 301 197 319 12 3
31 14 42 24 11 10 33 20 49 22 24 2 34 12 50 45 21 42 52 62 149 93 56 18 56
5 -1 -30 -44 -27 -70 -56 -59 -66 2 -2 25 8 52 21 28 15 66 25 90 25 40 0 122
41 140 70 8 13 66 7 160 -17z m-34 -150 c20 5 20 5 0 -26 -15 -25 -28 -33 -56
-35 -25 -2 -35 1 -35 11 0 10 7 13 20 10 15 -4 20 0 20 13 0 9 6 33 13 53 l12
35 3 -33 c3 -27 7 -32 23 -28z m190 -173 c6 0 9 -5 7 -11 -2 -7 -31 -13 -66
-14 -60 -2 -62 -2 -56 19 9 31 23 43 33 28 6 -10 10 -10 20 2 11 13 15 12 32
-5 10 -10 24 -19 30 -19z"/>
<path d="M985 2048 c-10 -33 -11 -78 -1 -78 28 1 36 16 25 53 -10 39 -17 45
-24 25z"/>
<path d="M940 2005 c-10 -12 -10 -15 3 -15 8 0 17 7 21 15 3 8 2 15 -3 15 -5
0 -14 -7 -21 -15z"/>
</g>
</svg>
