<?xml version="1.0" standalone="no"?>
<!DOCTYPE svg PUBLIC "-//W3C//DTD SVG 20010904//EN"
 "http://www.w3.org/TR/2001/REC-SVG-20010904/DTD/svg10.dtd">
<svg width="250.000000pt" height="250.000000pt" viewBox="0 0 250.000000 250.000000"
 preserveAspectRatio="xMidYMid meet">
<g transform="translate(0.000000,250.000000) scale(0.100000,-0.100000)"
stroke="none">
<path d="M1150 2300 l0 -150 -200 0 -200 0 0 -150 0 -150 -150 0 -150 0 0
-100 0 -100 -150 0 -150 0 0 -700 0 -700 -50 0 -50 0 0 -100 0 -100 1200 0
1200 0 0 100 0 100 -50 0 -50 0 0 700 0 700 -150 0 -150 0 0 100 0 100 -150 0
-150 0 0 150 0 150 -250 0 -250 0 0 50 0 50 150 0 150 0 0 100 0 100 -200 0
-200 0 0 -150z m-130 -694 c0 -36 5 -68 10 -71 20 -12 9 -25 -20 -25 -16 0
-30 5 -30 10 0 6 5 10 10 10 6 0 10 27 10 60 0 45 -4 60 -14 60 -8 0 -16 -6
-19 -12 -2 -7 -8 -10 -12 -6 -16 15 5 38 35 38 l30 0 0 -64z m195 -16 l0 -75
-42 -3 c-50 -4 -59 15 -10 20 24 2 33 8 35 26 3 19 -1 22 -32 22 -20 0 -36 5
-36 10 0 6 16 10 36 10 31 0 35 3 32 23 -2 17 -11 23 -35 25 -49 5 -40 24 10
20 l42 -3 0 -75z m165 0 l0 -80 -45 0 c-25 0 -45 5 -45 10 0 6 16 10 35 10 31
0 35 3 35 25 0 21 -5 25 -29 25 -17 0 -33 5 -36 10 -4 6 8 10 29 10 32 0 36 3
36 25 0 22 -4 25 -35 25 -19 0 -35 5 -35 10 0 6 20 10 45 10 l45 0 0 -80z
m168 11 c4 -91 -11 -113 -18 -26 -5 67 -6 70 -32 73 -20 2 -28 -1 -28 -12 0
-8 -4 -18 -10 -21 -6 -4 -10 7 -10 25 0 31 0 31 48 28 l47 -3 3 -64z m-998
-251 l0 -100 -100 0 -100 0 0 100 0 100 100 0 100 0 0 -100z m1600 0 l0 -100
-100 0 -100 0 0 100 0 100 100 0 100 0 0 -100z m-1600 -400 l0 -100 -100 0
-100 0 0 100 0 100 100 0 100 0 0 -100z m1600 0 l0 -100 -100 0 -100 0 0 100
0 100 100 0 100 0 0 -100z m-700 -84 l195 -113 3 -302 2 -301 -100 0 -100 0 0
250 0 250 -100 50 -100 50 -100 -50 -100 -50 0 -250 0 -250 -100 0 -100 0 2
301 3 302 195 113 c107 63 197 114 200 114 3 0 93 -51 200 -114z m-900 -316
l0 -100 -100 0 -100 0 0 100 0 100 100 0 100 0 0 -100z m1600 0 l0 -100 -100
0 -100 0 0 100 0 100 100 0 100 0 0 -100z"/>
</g>
</svg>
